<svg width="31" height="19" viewBox="0 0 31 19" fill="none" xmlns="http://www.w3.org/2000/svg">
<path d="M0.125 16.9062C0.125 16.5664 0.259989 16.2405 0.50027 16.0003C0.740551 15.76 1.06644 15.625 1.40625 15.625H9.09375C9.43356 15.625 9.75945 15.76 9.99973 16.0003C10.24 16.2405 10.375 16.5664 10.375 16.9062C10.375 17.2461 10.24 17.572 9.99973 17.8122C9.75945 18.0525 9.43356 18.1875 9.09375 18.1875H1.40625C1.06644 18.1875 0.740551 18.0525 0.50027 17.8122C0.259989 17.572 0.125 17.2461 0.125 16.9062ZM0.125 9.21875C0.125 8.87894 0.259989 8.55305 0.50027 8.31277C0.740551 8.07249 1.06644 7.9375 1.40625 7.9375H19.3438C19.6836 7.9375 20.0095 8.07249 20.2497 8.31277C20.49 8.55305 20.625 8.87894 20.625 9.21875C20.625 9.55856 20.49 9.88445 20.2497 10.1247C20.0095 10.365 19.6836 10.5 19.3438 10.5H1.40625C1.06644 10.5 0.740551 10.365 0.50027 10.1247C0.259989 9.88445 0.125 9.55856 0.125 9.21875ZM0.125 1.53125C0.125 1.19144 0.259989 0.865551 0.50027 0.62527C0.740551 0.384989 1.06644 0.25 1.40625 0.25H29.5938C29.9336 0.25 30.2595 0.384989 30.4997 0.62527C30.74 0.865551 30.875 1.19144 30.875 1.53125C30.875 1.87106 30.74 2.19695 30.4997 2.43723C30.2595 2.67751 29.9336 2.8125 29.5938 2.8125H1.40625C1.06644 2.8125 0.740551 2.67751 0.50027 2.43723C0.259989 2.19695 0.125 1.87106 0.125 1.53125Z" fill="#112B3C"/>
</svg>
